<mxfile host="app.diagrams.net" modified="2023-01-29T10:28:40.903Z" agent="5.0 (Macintosh; Intel Mac OS X 10_15_7) AppleWebKit/537.36 (KHTML, like Gecko) Chrome/109.0.0.0 Safari/537.36" etag="Jp8K2Kteqka305dz61FJ" version="20.8.10" type="github">
  <diagram name="Page-1" id="nGYWewRXui2Fx3KTtozV">
    <mxGraphModel dx="565" dy="730" grid="1" gridSize="10" guides="1" tooltips="1" connect="1" arrows="1" fold="1" page="0" pageScale="1" pageWidth="827" pageHeight="1169" math="0" shadow="0">
      <root>
        <mxCell id="0" />
        <mxCell id="1" parent="0" />
        <mxCell id="KbPWcq6YWR8YbZMRvUUL-1" value="1080p" style="shape=image;html=1;verticalAlign=top;verticalLabelPosition=bottom;labelBackgroundColor=#ffffff;imageAspect=0;aspect=fixed;image=https://cdn4.iconfinder.com/data/icons/ionicons/512/icon-ios7-monitor-outline-128.png" vertex="1" parent="1">
          <mxGeometry x="690" y="80" width="128" height="128" as="geometry" />
        </mxCell>
        <mxCell id="KbPWcq6YWR8YbZMRvUUL-2" value="2K" style="shape=image;html=1;verticalAlign=top;verticalLabelPosition=bottom;labelBackgroundColor=#ffffff;imageAspect=0;aspect=fixed;image=https://cdn4.iconfinder.com/data/icons/ionicons/512/icon-ios7-monitor-outline-128.png" vertex="1" parent="1">
          <mxGeometry x="840" y="80" width="128" height="128" as="geometry" />
        </mxCell>
        <mxCell id="KbPWcq6YWR8YbZMRvUUL-3" value="" style="shape=image;html=1;verticalAlign=top;verticalLabelPosition=bottom;labelBackgroundColor=#ffffff;imageAspect=0;aspect=fixed;image=https://cdn3.iconfinder.com/data/icons/snowish/extras/mac-mini.png" vertex="1" parent="1">
          <mxGeometry x="1240" y="430" width="128" height="128" as="geometry" />
        </mxCell>
        <mxCell id="KbPWcq6YWR8YbZMRvUUL-4" value="" style="fontColor=#0066CC;verticalAlign=top;verticalLabelPosition=bottom;labelPosition=center;align=center;html=1;outlineConnect=0;fillColor=#CCCCCC;strokeColor=#6881B3;gradientColor=none;gradientDirection=north;strokeWidth=2;shape=mxgraph.networks.desktop_pc;" vertex="1" parent="1">
          <mxGeometry x="1250" y="290" width="55" height="110" as="geometry" />
        </mxCell>
        <mxCell id="KbPWcq6YWR8YbZMRvUUL-6" value="" style="shape=image;html=1;verticalAlign=top;verticalLabelPosition=bottom;labelBackgroundColor=#ffffff;imageAspect=0;aspect=fixed;image=https://cdn1.iconfinder.com/data/icons/bootstrap-vol-3/16/keyboard-128.png" vertex="1" parent="1">
          <mxGeometry x="760" y="701.5" width="128" height="128" as="geometry" />
        </mxCell>
        <mxCell id="KbPWcq6YWR8YbZMRvUUL-7" value="" style="shape=image;html=1;verticalAlign=top;verticalLabelPosition=bottom;labelBackgroundColor=#ffffff;imageAspect=0;aspect=fixed;image=https://cdn1.iconfinder.com/data/icons/bootstrap-vol-3/16/mouse-128.png" vertex="1" parent="1">
          <mxGeometry x="896.47" y="730" width="71" height="71" as="geometry" />
        </mxCell>
        <mxCell id="KbPWcq6YWR8YbZMRvUUL-8" value="" style="verticalLabelPosition=bottom;sketch=0;aspect=fixed;html=1;verticalAlign=top;strokeColor=none;align=center;outlineConnect=0;shape=mxgraph.citrix.switch;" vertex="1" parent="1">
          <mxGeometry x="740" y="350" width="203.95" height="92" as="geometry" />
        </mxCell>
        <mxCell id="KbPWcq6YWR8YbZMRvUUL-14" value="" style="endArrow=classic;html=1;rounded=0;sketch=0;" edge="1" parent="1">
          <mxGeometry width="50" height="50" relative="1" as="geometry">
            <mxPoint x="822" y="735" as="sourcePoint" />
            <mxPoint x="822" y="450" as="targetPoint" />
          </mxGeometry>
        </mxCell>
        <mxCell id="KbPWcq6YWR8YbZMRvUUL-16" value="USB" style="edgeLabel;html=1;align=center;verticalAlign=middle;resizable=0;points=[];" vertex="1" connectable="0" parent="KbPWcq6YWR8YbZMRvUUL-14">
          <mxGeometry x="-0.0596" relative="1" as="geometry">
            <mxPoint as="offset" />
          </mxGeometry>
        </mxCell>
        <mxCell id="KbPWcq6YWR8YbZMRvUUL-15" value="" style="endArrow=classic;html=1;rounded=0;sketch=0;" edge="1" parent="1">
          <mxGeometry width="50" height="50" relative="1" as="geometry">
            <mxPoint x="932" y="730" as="sourcePoint" />
            <mxPoint x="840" y="450" as="targetPoint" />
            <Array as="points">
              <mxPoint x="932" y="570" />
              <mxPoint x="840" y="570" />
            </Array>
          </mxGeometry>
        </mxCell>
        <mxCell id="KbPWcq6YWR8YbZMRvUUL-17" value="USB" style="edgeLabel;html=1;align=center;verticalAlign=middle;resizable=0;points=[];" vertex="1" connectable="0" parent="KbPWcq6YWR8YbZMRvUUL-15">
          <mxGeometry x="-0.3387" y="1" relative="1" as="geometry">
            <mxPoint as="offset" />
          </mxGeometry>
        </mxCell>
        <mxCell id="KbPWcq6YWR8YbZMRvUUL-19" value="" style="endArrow=classic;html=1;rounded=0;sketch=0;" edge="1" parent="1">
          <mxGeometry width="50" height="50" relative="1" as="geometry">
            <mxPoint x="880" y="359" as="sourcePoint" />
            <mxPoint x="1250" y="312" as="targetPoint" />
            <Array as="points">
              <mxPoint x="880" y="310" />
            </Array>
          </mxGeometry>
        </mxCell>
        <mxCell id="KbPWcq6YWR8YbZMRvUUL-27" value="USB" style="edgeLabel;html=1;align=center;verticalAlign=middle;resizable=0;points=[];" vertex="1" connectable="0" parent="KbPWcq6YWR8YbZMRvUUL-19">
          <mxGeometry x="-0.1" y="3" relative="1" as="geometry">
            <mxPoint x="5" y="3" as="offset" />
          </mxGeometry>
        </mxCell>
        <mxCell id="KbPWcq6YWR8YbZMRvUUL-20" value="" style="endArrow=classic;html=1;rounded=0;sketch=0;" edge="1" parent="1">
          <mxGeometry width="50" height="50" relative="1" as="geometry">
            <mxPoint x="901" y="365" as="sourcePoint" />
            <mxPoint x="1250" y="332" as="targetPoint" />
            <Array as="points">
              <mxPoint x="900" y="330" />
            </Array>
          </mxGeometry>
        </mxCell>
        <mxCell id="KbPWcq6YWR8YbZMRvUUL-26" value="USB" style="edgeLabel;html=1;align=center;verticalAlign=middle;resizable=0;points=[];" vertex="1" connectable="0" parent="KbPWcq6YWR8YbZMRvUUL-20">
          <mxGeometry x="-0.2077" relative="1" as="geometry">
            <mxPoint x="13" as="offset" />
          </mxGeometry>
        </mxCell>
        <mxCell id="KbPWcq6YWR8YbZMRvUUL-21" value="" style="endArrow=classic;html=1;rounded=0;sketch=0;" edge="1" parent="1">
          <mxGeometry width="50" height="50" relative="1" as="geometry">
            <mxPoint x="920" y="370" as="sourcePoint" />
            <mxPoint x="1250" y="352" as="targetPoint" />
            <Array as="points">
              <mxPoint x="920" y="350" />
            </Array>
          </mxGeometry>
        </mxCell>
        <mxCell id="KbPWcq6YWR8YbZMRvUUL-25" value="HDMI / DP" style="edgeLabel;html=1;align=center;verticalAlign=middle;resizable=0;points=[];" vertex="1" connectable="0" parent="KbPWcq6YWR8YbZMRvUUL-21">
          <mxGeometry x="-0.3462" y="-3" relative="1" as="geometry">
            <mxPoint x="22" as="offset" />
          </mxGeometry>
        </mxCell>
        <mxCell id="KbPWcq6YWR8YbZMRvUUL-28" value="" style="endArrow=classic;html=1;rounded=0;sketch=0;" edge="1" parent="1">
          <mxGeometry width="50" height="50" relative="1" as="geometry">
            <mxPoint x="920" y="424" as="sourcePoint" />
            <mxPoint x="1250" y="460" as="targetPoint" />
            <Array as="points">
              <mxPoint x="920" y="460" />
            </Array>
          </mxGeometry>
        </mxCell>
        <mxCell id="KbPWcq6YWR8YbZMRvUUL-29" value="USB" style="edgeLabel;html=1;align=center;verticalAlign=middle;resizable=0;points=[];" vertex="1" connectable="0" parent="KbPWcq6YWR8YbZMRvUUL-28">
          <mxGeometry x="-0.1" y="3" relative="1" as="geometry">
            <mxPoint x="5" y="3" as="offset" />
          </mxGeometry>
        </mxCell>
        <mxCell id="KbPWcq6YWR8YbZMRvUUL-30" value="" style="endArrow=classic;html=1;rounded=0;sketch=0;" edge="1" parent="1">
          <mxGeometry width="50" height="50" relative="1" as="geometry">
            <mxPoint x="901" y="428" as="sourcePoint" />
            <mxPoint x="1250" y="480" as="targetPoint" />
            <Array as="points">
              <mxPoint x="901" y="480" />
            </Array>
          </mxGeometry>
        </mxCell>
        <mxCell id="KbPWcq6YWR8YbZMRvUUL-31" value="USB" style="edgeLabel;html=1;align=center;verticalAlign=middle;resizable=0;points=[];" vertex="1" connectable="0" parent="KbPWcq6YWR8YbZMRvUUL-30">
          <mxGeometry x="-0.2077" relative="1" as="geometry">
            <mxPoint x="13" as="offset" />
          </mxGeometry>
        </mxCell>
        <mxCell id="KbPWcq6YWR8YbZMRvUUL-32" value="" style="endArrow=classic;html=1;rounded=0;sketch=0;" edge="1" parent="1">
          <mxGeometry width="50" height="50" relative="1" as="geometry">
            <mxPoint x="880" y="435" as="sourcePoint" />
            <mxPoint x="1250" y="500" as="targetPoint" />
            <Array as="points">
              <mxPoint x="880" y="500" />
            </Array>
          </mxGeometry>
        </mxCell>
        <mxCell id="KbPWcq6YWR8YbZMRvUUL-33" value="&lt;meta charset=&quot;utf-8&quot;&gt;&lt;span style=&quot;color: rgb(0, 0, 0); font-family: Helvetica; font-size: 11px; font-style: normal; font-variant-ligatures: normal; font-variant-caps: normal; font-weight: 400; letter-spacing: normal; orphans: 2; text-align: center; text-indent: 0px; text-transform: none; widows: 2; word-spacing: 0px; -webkit-text-stroke-width: 0px; background-color: rgb(255, 255, 255); text-decoration-thickness: initial; text-decoration-style: initial; text-decoration-color: initial; float: none; display: inline !important;&quot;&gt;HDMI / DP&lt;/span&gt;" style="edgeLabel;html=1;align=center;verticalAlign=middle;resizable=0;points=[];" vertex="1" connectable="0" parent="KbPWcq6YWR8YbZMRvUUL-32">
          <mxGeometry x="-0.3462" y="-3" relative="1" as="geometry">
            <mxPoint x="22" as="offset" />
          </mxGeometry>
        </mxCell>
        <mxCell id="KbPWcq6YWR8YbZMRvUUL-34" value="" style="endArrow=classic;startArrow=classic;html=1;rounded=0;sketch=0;" edge="1" parent="1">
          <mxGeometry width="50" height="50" relative="1" as="geometry">
            <mxPoint x="800" y="361" as="sourcePoint" />
            <mxPoint x="760" y="240" as="targetPoint" />
            <Array as="points">
              <mxPoint x="800" y="290" />
              <mxPoint x="760" y="290" />
            </Array>
          </mxGeometry>
        </mxCell>
        <mxCell id="KbPWcq6YWR8YbZMRvUUL-37" value="&lt;meta charset=&quot;utf-8&quot;&gt;&lt;span style=&quot;color: rgb(0, 0, 0); font-family: Helvetica; font-size: 11px; font-style: normal; font-variant-ligatures: normal; font-variant-caps: normal; font-weight: 400; letter-spacing: normal; orphans: 2; text-align: center; text-indent: 0px; text-transform: none; widows: 2; word-spacing: 0px; -webkit-text-stroke-width: 0px; background-color: rgb(255, 255, 255); text-decoration-thickness: initial; text-decoration-style: initial; text-decoration-color: initial; float: none; display: inline !important;&quot;&gt;HDMI / DP&lt;/span&gt;" style="edgeLabel;html=1;align=center;verticalAlign=middle;resizable=0;points=[];" vertex="1" connectable="0" parent="KbPWcq6YWR8YbZMRvUUL-34">
          <mxGeometry x="0.1429" y="1" relative="1" as="geometry">
            <mxPoint as="offset" />
          </mxGeometry>
        </mxCell>
        <mxCell id="KbPWcq6YWR8YbZMRvUUL-35" value="" style="endArrow=classic;startArrow=classic;html=1;rounded=0;sketch=0;" edge="1" parent="1">
          <mxGeometry width="50" height="50" relative="1" as="geometry">
            <mxPoint x="817" y="354" as="sourcePoint" />
            <mxPoint x="900" y="240" as="targetPoint" />
            <Array as="points">
              <mxPoint x="817" y="290" />
              <mxPoint x="900" y="290" />
            </Array>
          </mxGeometry>
        </mxCell>
        <mxCell id="KbPWcq6YWR8YbZMRvUUL-36" value="&lt;meta charset=&quot;utf-8&quot;&gt;&lt;span style=&quot;color: rgb(0, 0, 0); font-family: Helvetica; font-size: 11px; font-style: normal; font-variant-ligatures: normal; font-variant-caps: normal; font-weight: 400; letter-spacing: normal; orphans: 2; text-align: center; text-indent: 0px; text-transform: none; widows: 2; word-spacing: 0px; -webkit-text-stroke-width: 0px; background-color: rgb(255, 255, 255); text-decoration-thickness: initial; text-decoration-style: initial; text-decoration-color: initial; float: none; display: inline !important;&quot;&gt;HDMI / DP&lt;/span&gt;" style="edgeLabel;html=1;align=center;verticalAlign=middle;resizable=0;points=[];" vertex="1" connectable="0" parent="KbPWcq6YWR8YbZMRvUUL-35">
          <mxGeometry x="0.1777" y="1" relative="1" as="geometry">
            <mxPoint as="offset" />
          </mxGeometry>
        </mxCell>
        <mxCell id="KbPWcq6YWR8YbZMRvUUL-38" value="" style="endArrow=classic;html=1;rounded=0;sketch=0;" edge="1" parent="1">
          <mxGeometry width="50" height="50" relative="1" as="geometry">
            <mxPoint x="860" y="439" as="sourcePoint" />
            <mxPoint x="1249" y="521" as="targetPoint" />
            <Array as="points">
              <mxPoint x="860" y="520" />
            </Array>
          </mxGeometry>
        </mxCell>
        <mxCell id="KbPWcq6YWR8YbZMRvUUL-39" value="&lt;meta charset=&quot;utf-8&quot;&gt;&lt;span style=&quot;color: rgb(0, 0, 0); font-family: Helvetica; font-size: 11px; font-style: normal; font-variant-ligatures: normal; font-variant-caps: normal; font-weight: 400; letter-spacing: normal; orphans: 2; text-align: center; text-indent: 0px; text-transform: none; widows: 2; word-spacing: 0px; -webkit-text-stroke-width: 0px; background-color: rgb(255, 255, 255); text-decoration-thickness: initial; text-decoration-style: initial; text-decoration-color: initial; float: none; display: inline !important;&quot;&gt;HDMI / DP&lt;/span&gt;" style="edgeLabel;html=1;align=center;verticalAlign=middle;resizable=0;points=[];" vertex="1" connectable="0" parent="KbPWcq6YWR8YbZMRvUUL-38">
          <mxGeometry x="-0.3462" y="-3" relative="1" as="geometry">
            <mxPoint x="22" as="offset" />
          </mxGeometry>
        </mxCell>
        <mxCell id="KbPWcq6YWR8YbZMRvUUL-40" value="" style="endArrow=classic;html=1;rounded=0;sketch=0;" edge="1" parent="1">
          <mxGeometry width="50" height="50" relative="1" as="geometry">
            <mxPoint x="945" y="411" as="sourcePoint" />
            <mxPoint x="1245.95" y="371" as="targetPoint" />
            <Array as="points">
              <mxPoint x="944" y="370" />
            </Array>
          </mxGeometry>
        </mxCell>
        <mxCell id="KbPWcq6YWR8YbZMRvUUL-41" value="HDMI / DP" style="edgeLabel;html=1;align=center;verticalAlign=middle;resizable=0;points=[];" vertex="1" connectable="0" parent="KbPWcq6YWR8YbZMRvUUL-40">
          <mxGeometry x="-0.3462" y="-3" relative="1" as="geometry">
            <mxPoint x="22" as="offset" />
          </mxGeometry>
        </mxCell>
        <mxCell id="KbPWcq6YWR8YbZMRvUUL-42" value="" style="dashed=0;labelPosition=right;align=left;shape=mxgraph.gmdl.radiobutton;strokeColor=#B20000;fillColor=#e51400;strokeWidth=2;aspect=fixed;sketch=0;fontColor=#ffffff;" vertex="1" parent="1">
          <mxGeometry x="878" y="403" width="16" height="16" as="geometry" />
        </mxCell>
      </root>
    </mxGraphModel>
  </diagram>
</mxfile>
